<svg width="50" height="50" viewBox="0 0 50 50" fill="none" xmlns="http://www.w3.org/2000/svg">
<rect width="50" height="50" rx="25" fill="#F8F6F0"/>
<mask id="mask0_727_2388" style="mask-type:alpha" maskUnits="userSpaceOnUse" x="12" y="12" width="26" height="26">
<g clip-path="url(#clip0_727_2388)">
<g clip-path="url(#clip1_727_2388)">
<path d="M12.7521 33.7896L24.5267 22.0095C24.7889 21.7472 25.213 21.7472 25.4753 22.0095L37.2499 33.7896C37.5121 34.0519 37.5121 34.476 37.2499 34.7383L36.8537 35.1345C36.5914 35.3968 36.1673 35.3968 35.905 35.1345L25.001 24.2249L14.0914 35.1289C13.8291 35.3912 13.405 35.3912 13.1427 35.1289L12.7465 34.7327C12.4898 34.476 12.4898 34.0519 12.7521 33.7896ZM12.7521 27.5954L13.1483 27.9916C13.4106 28.2539 13.8347 28.2539 14.097 27.9916L25.001 17.082L35.9106 27.9916C36.1729 28.2539 36.597 28.2539 36.8592 27.9916L37.2554 27.5954C37.5177 27.3331 37.5177 26.909 37.2554 26.6468L25.4809 14.8666C25.2186 14.6044 24.7945 14.6044 24.5322 14.8666L12.7521 26.6468C12.4898 26.909 12.4898 27.3331 12.7521 27.5954Z" fill="black"/>
</g>
</g>
</mask>
<g mask="url(#mask0_727_2388)">
<rect x="12.5" y="12.5" width="25" height="25" fill="#272524"/>
</g>
<defs>
<clipPath id="clip0_727_2388">
<rect width="25" height="25" fill="white" transform="translate(12.5 12.5)"/>
</clipPath>
<clipPath id="clip1_727_2388">
<rect width="25" height="28.5714" fill="white" transform="translate(12.5 10.7148)"/>
</clipPath>
</defs>
</svg>
